<mxfile host="65bd71144e">
    <diagram id="LctTETbrxvf5X4p0GmfY" name="Page-1">
        <mxGraphModel dx="2671" dy="1751" grid="1" gridSize="10" guides="1" tooltips="1" connect="1" arrows="1" fold="1" page="1" pageScale="1" pageWidth="3300" pageHeight="4681" background="#ffffff" math="0" shadow="0">
            <root>
                <mxCell id="0"/>
                <mxCell id="1" parent="0"/>
                <mxCell id="41" value="" style="rounded=0;whiteSpace=wrap;html=1;labelBackgroundColor=#000000;strokeColor=#0a0a0a;fontSize=11;fontColor=#000000;fillColor=none;" parent="1" vertex="1">
                    <mxGeometry x="1000" y="1440" width="1160" height="1070" as="geometry"/>
                </mxCell>
                <mxCell id="27" value="" style="rounded=0;whiteSpace=wrap;html=1;labelBackgroundColor=#000000;strokeColor=#0a0a0a;fontSize=10;fontColor=#000000;fillColor=none;" parent="1" vertex="1">
                    <mxGeometry x="1260" y="1561" width="800" height="760" as="geometry"/>
                </mxCell>
                <mxCell id="10" style="edgeStyle=none;html=1;entryX=0;entryY=0.5;entryDx=0;entryDy=0;fontColor=none;strokeColor=#080808;" parent="1" source="2" edge="1">
                    <mxGeometry relative="1" as="geometry">
                        <mxPoint x="1440.000000000005" y="1940" as="targetPoint"/>
                    </mxGeometry>
                </mxCell>
                <mxCell id="2" value="" style="shape=umlActor;verticalLabelPosition=bottom;verticalAlign=top;html=1;outlineConnect=0;strokeColor=#0a0a0a;fillColor=none;" parent="1" vertex="1">
                    <mxGeometry x="1080" y="1800" width="40" height="80" as="geometry"/>
                </mxCell>
                <mxCell id="11" style="edgeStyle=none;html=1;entryX=0;entryY=0.5;entryDx=0;entryDy=0;strokeColor=#080808;fontColor=none;" parent="1" source="3" edge="1">
                    <mxGeometry relative="1" as="geometry">
                        <mxPoint x="1440.000000000005" y="1940" as="targetPoint"/>
                    </mxGeometry>
                </mxCell>
                <mxCell id="3" value="&lt;font color=&quot;#000000&quot;&gt;PEMBELI&lt;/font&gt;" style="shape=umlActor;verticalLabelPosition=bottom;verticalAlign=top;html=1;outlineConnect=0;strokeColor=#0a0a0a;fillColor=none;" parent="1" vertex="1">
                    <mxGeometry x="1080" y="2000" width="40" height="80" as="geometry"/>
                </mxCell>
                <mxCell id="5" value="ADMIN" style="text;html=1;align=center;verticalAlign=middle;resizable=0;points=[];autosize=1;strokeColor=none;fillColor=none;fontColor=none;" parent="1" vertex="1">
                    <mxGeometry x="1070" y="1880" width="60" height="30" as="geometry"/>
                </mxCell>
                <mxCell id="29" style="edgeStyle=none;html=1;exitX=1;exitY=0.5;exitDx=0;exitDy=0;entryX=0;entryY=0.5;entryDx=0;entryDy=0;strokeColor=#080808;fontSize=10;fontColor=#000000;" parent="1" source="16" target="26" edge="1">
                    <mxGeometry relative="1" as="geometry"/>
                </mxCell>
                <mxCell id="16" value="&lt;font style=&quot;font-size: 10px;&quot;&gt;Melihat Daftar Barang&lt;br&gt;(nama, deskripsi, harga, stok, gambar)&lt;br&gt;&lt;/font&gt;" style="ellipse;whiteSpace=wrap;html=1;labelBackgroundColor=none;strokeColor=#001DBC;fontColor=#ffffff;fillColor=#0050ef;" parent="1" vertex="1">
                    <mxGeometry x="1600" y="1700" width="150" height="55" as="geometry"/>
                </mxCell>
                <mxCell id="17" value="&lt;font style=&quot;font-size: 11px;&quot;&gt;Mendaftar Akun&lt;/font&gt;" style="ellipse;whiteSpace=wrap;html=1;labelBackgroundColor=none;strokeColor=#001DBC;fontColor=#ffffff;fillColor=#0050ef;" parent="1" vertex="1">
                    <mxGeometry x="1440" y="1790" width="110" height="50" as="geometry"/>
                </mxCell>
                <mxCell id="22" style="edgeStyle=none;html=1;strokeColor=#080808;fontColor=#000000;" parent="1" source="18" target="17" edge="1">
                    <mxGeometry relative="1" as="geometry"/>
                </mxCell>
                <mxCell id="23" style="edgeStyle=none;html=1;exitX=1;exitY=0.5;exitDx=0;exitDy=0;entryX=0;entryY=0.5;entryDx=0;entryDy=0;strokeColor=#080808;fontSize=10;fontColor=#000000;" parent="1" source="18" target="16" edge="1">
                    <mxGeometry relative="1" as="geometry"/>
                </mxCell>
                <mxCell id="24" style="edgeStyle=none;html=1;exitX=1;exitY=0.5;exitDx=0;exitDy=0;entryX=0;entryY=0.5;entryDx=0;entryDy=0;strokeColor=#080808;fontSize=10;fontColor=#000000;" parent="1" source="18" target="20" edge="1">
                    <mxGeometry relative="1" as="geometry"/>
                </mxCell>
                <mxCell id="25" style="edgeStyle=none;html=1;exitX=1;exitY=0.5;exitDx=0;exitDy=0;entryX=0;entryY=0.5;entryDx=0;entryDy=0;strokeColor=#080808;fontSize=10;fontColor=#000000;" parent="1" source="18" target="19" edge="1">
                    <mxGeometry relative="1" as="geometry"/>
                </mxCell>
                <mxCell id="35" style="edgeStyle=none;html=1;exitX=1;exitY=0.5;exitDx=0;exitDy=0;entryX=0;entryY=0.5;entryDx=0;entryDy=0;strokeColor=#080808;fontSize=11;fontColor=#000000;" parent="1" source="18" target="31" edge="1">
                    <mxGeometry relative="1" as="geometry"/>
                </mxCell>
                <mxCell id="36" style="edgeStyle=none;html=1;exitX=1;exitY=0.5;exitDx=0;exitDy=0;entryX=0;entryY=0.5;entryDx=0;entryDy=0;strokeColor=#080808;fontSize=11;fontColor=#000000;" parent="1" source="18" target="33" edge="1">
                    <mxGeometry relative="1" as="geometry"/>
                </mxCell>
                <mxCell id="37" style="edgeStyle=none;html=1;exitX=1;exitY=0.5;exitDx=0;exitDy=0;entryX=0;entryY=0.5;entryDx=0;entryDy=0;strokeColor=#080808;fontSize=11;fontColor=#000000;" parent="1" source="18" target="34" edge="1">
                    <mxGeometry relative="1" as="geometry"/>
                </mxCell>
                <mxCell id="18" value="&lt;font style=&quot;font-size: 11px;&quot;&gt;Login&lt;/font&gt;" style="ellipse;whiteSpace=wrap;html=1;labelBackgroundColor=none;strokeColor=#001DBC;fontColor=#ffffff;fillColor=#0050ef;" parent="1" vertex="1">
                    <mxGeometry x="1440" y="1916" width="110" height="50" as="geometry"/>
                </mxCell>
                <mxCell id="28" style="edgeStyle=none;html=1;exitX=1;exitY=0.5;exitDx=0;exitDy=0;entryX=0;entryY=0.5;entryDx=0;entryDy=0;strokeColor=#080808;fontSize=10;fontColor=#000000;" parent="1" source="19" target="26" edge="1">
                    <mxGeometry relative="1" as="geometry"/>
                </mxCell>
                <mxCell id="19" value="&lt;font style=&quot;font-size: 11px;&quot;&gt;Menghitung Total Harga Barang&lt;/font&gt;" style="ellipse;whiteSpace=wrap;html=1;labelBackgroundColor=none;strokeColor=#001DBC;fontColor=#ffffff;fillColor=#0050ef;" parent="1" vertex="1">
                    <mxGeometry x="1670" y="1866" width="150" height="55" as="geometry"/>
                </mxCell>
                <mxCell id="30" style="edgeStyle=none;html=1;exitX=1;exitY=0.5;exitDx=0;exitDy=0;strokeColor=#080808;fontSize=10;fontColor=#000000;" parent="1" source="20" edge="1">
                    <mxGeometry relative="1" as="geometry">
                        <mxPoint x="1910" y="1940" as="targetPoint"/>
                    </mxGeometry>
                </mxCell>
                <mxCell id="20" value="&lt;font style=&quot;font-size: 10px;&quot;&gt;Dapat Menambah, Mengubah, dan Menghapus Barang&lt;/font&gt;" style="ellipse;whiteSpace=wrap;html=1;labelBackgroundColor=none;strokeColor=#001DBC;fontColor=#ffffff;fillColor=#0050ef;" parent="1" vertex="1">
                    <mxGeometry x="1635" y="1785" width="150" height="55" as="geometry"/>
                </mxCell>
                <mxCell id="26" value="&lt;font style=&quot;font-size: 11px;&quot;&gt;Log Out&lt;/font&gt;" style="ellipse;whiteSpace=wrap;html=1;labelBackgroundColor=none;strokeColor=#001DBC;fontColor=#ffffff;fillColor=#0050ef;" parent="1" vertex="1">
                    <mxGeometry x="1910" y="1916" width="110" height="50" as="geometry"/>
                </mxCell>
                <mxCell id="31" value="&lt;font style=&quot;font-size: 10px;&quot;&gt;Melihat Daftar Barang&lt;br&gt;(nama, deskripsi, harga, stok, gambar)&lt;br&gt;&lt;/font&gt;" style="ellipse;whiteSpace=wrap;html=1;labelBackgroundColor=none;strokeColor=#001DBC;fontColor=#ffffff;fillColor=#0050ef;" parent="1" vertex="1">
                    <mxGeometry x="1600" y="2200" width="150" height="55" as="geometry"/>
                </mxCell>
                <mxCell id="33" value="&lt;font style=&quot;font-size: 10px;&quot;&gt;Melakukan Transaksi Pembelian dan Menentukan Jumlah Barang&lt;br&gt;&lt;/font&gt;" style="ellipse;whiteSpace=wrap;html=1;labelBackgroundColor=none;strokeColor=#001DBC;fontColor=#ffffff;fillColor=#0050ef;" parent="1" vertex="1">
                    <mxGeometry x="1635" y="2110" width="160" height="60" as="geometry"/>
                </mxCell>
                <mxCell id="38" style="edgeStyle=none;html=1;exitX=1;exitY=0.5;exitDx=0;exitDy=0;entryX=0;entryY=0.5;entryDx=0;entryDy=0;strokeColor=#080808;fontSize=11;fontColor=#000000;" parent="1" source="34" target="26" edge="1">
                    <mxGeometry relative="1" as="geometry"/>
                </mxCell>
                <mxCell id="34" value="&lt;font style=&quot;&quot;&gt;&lt;font style=&quot;font-size: 11px;&quot;&gt;Melakukan Konfirmasi Pembayaran&lt;/font&gt;&lt;br&gt;&lt;/font&gt;" style="ellipse;whiteSpace=wrap;html=1;labelBackgroundColor=none;strokeColor=#001DBC;fontColor=#ffffff;fillColor=#0050ef;" parent="1" vertex="1">
                    <mxGeometry x="1670" y="2030" width="150" height="55" as="geometry"/>
                </mxCell>
            </root>
        </mxGraphModel>
    </diagram>
</mxfile>